<svg width="1405" height="338" viewBox="0 0 1405 338" fill="none" xmlns="http://www.w3.org/2000/svg">
<path d="M65.9901 244.578C54.3043 244.578 42.9623 242.687 31.9639 238.907C21.1374 234.954 11.9435 229.369 4.38215 222.151L18.5597 196.116C35.2291 208.318 50.6096 214.418 64.7012 214.418C70.0285 214.418 74.1529 213.559 77.0743 211.84C79.9958 210.122 81.4565 207.458 81.4565 203.849C81.4565 200.069 79.4802 197.405 75.5277 195.859C71.5752 194.14 65.7323 192.164 57.9991 189.93C47.6881 186.493 39.0957 183.142 32.2217 179.877C25.3477 176.611 20.1923 172.659 16.7553 168.019C13.3183 163.379 11.5998 157.192 11.5998 149.459C11.5998 135.883 16.6694 124.971 26.8085 116.722C36.9476 108.301 50.6955 104.091 68.0522 104.091C77.3321 104.091 86.3542 105.552 95.1185 108.473C104.055 111.395 112.389 116.292 120.123 123.166L104.141 148.944C96.4074 143.616 89.5334 139.75 83.5187 137.344C77.5039 134.938 71.6611 133.735 65.9901 133.735C61.522 133.735 57.7413 134.594 54.648 136.313C51.5547 137.859 50.0081 140.609 50.0081 144.562C50.0081 148.342 51.7266 151.178 55.1636 153.068C58.6005 154.787 63.9279 156.677 71.1455 158.739C82.1439 162.004 91.3378 165.355 98.7273 168.792C106.289 172.057 111.874 176.182 115.483 181.165C119.263 185.977 121.154 192.422 121.154 200.498C121.154 214.246 116.17 225.073 106.203 232.978C96.2355 240.711 82.8313 244.578 65.9901 244.578ZM216.057 234.782C210.386 237.188 203.855 239.422 196.466 241.484C189.248 243.547 181.945 244.578 174.555 244.578C167.681 244.578 161.409 243.461 155.738 241.227C150.067 238.821 145.513 234.954 142.076 229.627C138.639 224.3 136.92 217.254 136.92 208.489V137.859H119.649V106.669H136.92V63.6206H178.164V106.669H205.746V137.859H178.164V194.312C178.164 198.78 179.281 202.045 181.515 204.107C183.749 205.998 186.584 206.943 190.021 206.943C193.115 206.943 196.294 206.427 199.559 205.396C202.824 204.365 205.66 203.248 208.066 202.045L216.057 234.782ZM210.732 201.53C210.732 192.593 213.224 184.774 218.207 178.072C223.191 171.37 230.065 166.129 238.829 162.348C247.594 158.395 257.647 156.419 268.989 156.419C274.488 156.419 279.901 156.935 285.229 157.966C290.556 158.825 295.196 160.114 299.148 161.832V155.904C299.148 140.609 290.126 132.962 272.082 132.962C264.521 132.962 257.389 134.251 250.687 136.828C244.157 139.406 237.197 143.101 229.807 147.913L217.434 121.62C235.306 109.934 254.897 104.091 276.206 104.091C296.485 104.091 312.209 108.989 323.379 118.784C334.721 128.408 340.392 142.413 340.392 160.801V196.116C340.392 200.241 340.994 203.162 342.197 204.881C343.571 206.599 345.891 207.544 349.156 207.716V242C345.548 242.687 342.282 243.203 339.361 243.547C336.44 243.89 333.862 244.062 331.628 244.062C323.895 244.062 317.966 242.516 313.841 239.422C309.889 236.329 307.397 232.119 306.366 226.791L305.593 220.863C299.578 228.596 292.36 234.525 283.94 238.649C275.519 242.601 266.841 244.578 257.905 244.578C248.968 244.578 240.891 242.687 233.674 238.907C226.628 235.126 221.043 230.056 216.919 223.698C212.794 217.168 210.732 209.778 210.732 201.53ZM292.704 206.685C297 203.248 299.148 199.725 299.148 196.116V184.001C295.54 182.626 291.587 181.595 287.291 180.908C283.166 180.048 279.386 179.619 275.949 179.619C268.216 179.619 261.857 181.337 256.873 184.774C252.062 188.211 249.656 192.593 249.656 197.921C249.656 202.561 251.46 206.599 255.069 210.036C258.85 213.301 263.833 214.934 270.02 214.934C274.144 214.934 278.269 214.16 282.393 212.614C286.517 211.067 289.954 209.091 292.704 206.685ZM443.228 141.984C433.26 142.156 424.238 143.788 416.161 146.882C408.085 149.975 402.242 154.615 398.633 160.801V242H357.389V106.669H395.282V133.993C399.922 124.885 405.936 117.753 413.326 112.598C420.715 107.442 428.449 104.778 436.526 104.607C439.963 104.607 442.197 104.693 443.228 104.864V141.984ZM535.354 234.782C529.683 237.188 523.152 239.422 515.763 241.484C508.545 243.547 501.242 244.578 493.852 244.578C486.978 244.578 480.706 243.461 475.035 241.227C469.364 238.821 464.81 234.954 461.373 229.627C457.936 224.3 456.217 217.254 456.217 208.489V137.859H438.946V106.669H456.217V63.6206H497.461V106.669H525.043V137.859H497.461V194.312C497.461 198.78 498.578 202.045 500.812 204.107C503.046 205.998 505.881 206.943 509.318 206.943C512.412 206.943 515.591 206.427 518.856 205.396C522.121 204.365 524.957 203.248 527.363 202.045L535.354 234.782ZM537.247 193.281V106.669H578.49V184.259C578.49 201.272 584.763 209.778 597.308 209.778C602.807 209.778 608.134 208.318 613.29 205.396C618.445 202.303 622.999 197.233 626.952 190.187V106.669H668.196V196.116C668.196 200.241 668.797 203.162 670 204.881C671.375 206.599 673.695 207.544 676.96 207.716V242C673.007 242.687 669.656 243.203 666.907 243.547C664.157 243.89 661.665 244.062 659.431 244.062C644.652 244.062 636.232 238.305 634.169 226.791L633.396 218.543C627.21 227.479 619.476 234.095 610.197 238.391C601.089 242.516 590.864 244.578 579.521 244.578C565.774 244.578 555.291 240.196 548.073 231.431C540.855 222.667 537.247 209.95 537.247 193.281ZM772.84 244.578C762.701 244.578 753.764 242.43 746.031 238.133C738.47 233.665 732.627 227.651 728.503 220.089V296.906H687.259V106.669H723.089V128.58C728.073 120.846 734.345 114.832 741.907 110.535C749.468 106.239 758.318 104.091 768.457 104.091C780.487 104.091 791.228 107.27 800.679 113.629C810.303 119.815 817.778 128.15 823.106 138.633C828.605 149.116 831.354 160.887 831.354 173.948C831.354 187.352 828.862 199.381 823.879 210.036C818.895 220.691 811.935 229.111 802.999 235.298C794.235 241.484 784.182 244.578 772.84 244.578ZM758.92 209.778C764.763 209.778 770.004 208.146 774.644 204.881C779.284 201.444 782.893 197.061 785.471 191.734C788.048 186.235 789.337 180.22 789.337 173.69C789.337 163.723 786.244 155.474 780.057 148.944C774.043 142.413 766.309 139.148 756.858 139.148C751.187 139.148 745.687 140.867 740.36 144.304C735.205 147.569 731.252 152.037 728.503 157.708V185.548C731.252 192.422 735.377 198.178 740.876 202.818C746.547 207.458 752.561 209.778 758.92 209.778Z" fill="#0054A6"/>
<path d="M835.388 175.237C835.388 162.52 837.966 150.92 843.121 140.437C848.449 129.783 855.752 121.276 865.032 114.918C874.312 108.559 884.881 105.38 896.738 105.38C907.908 105.38 917.876 108.387 926.64 114.402C935.576 120.245 942.536 127.377 947.52 135.797V53.8252H965.048V220.863C965.048 225.502 967.11 227.908 971.235 228.08V242C967.798 242.516 965.134 242.687 963.244 242.516C959.463 242.344 956.198 240.969 953.448 238.391C950.871 235.642 949.582 232.548 949.582 229.111V215.965C944.254 224.729 937.037 231.689 927.929 236.845C918.821 242 909.369 244.578 899.574 244.578C890.294 244.578 881.701 242.687 873.796 238.907C865.891 235.126 859.017 229.971 853.174 223.44C847.503 216.91 843.121 209.521 840.028 201.272C836.935 192.851 835.388 184.173 835.388 175.237ZM947.52 195.859V154.357C945.286 148.17 941.677 142.585 936.693 137.602C931.709 132.446 926.038 128.408 919.68 125.486C913.493 122.393 907.307 120.846 901.12 120.846C891.497 120.846 883.076 123.51 875.858 128.837C868.813 133.993 863.314 140.781 859.361 149.201C855.408 157.45 853.432 166.129 853.432 175.237C853.432 184.86 855.58 193.796 859.877 202.045C864.345 210.294 870.359 216.91 877.921 221.894C885.482 226.705 893.989 229.111 903.44 229.111C909.283 229.111 915.384 227.651 921.742 224.729C928.272 221.636 933.943 217.597 938.755 212.614C943.739 207.63 946.66 202.045 947.52 195.859ZM981.048 203.334C981.048 195.085 983.454 187.953 988.266 181.939C993.078 175.752 999.694 170.94 1008.11 167.503C1016.71 164.066 1026.59 162.348 1037.76 162.348C1044.29 162.348 1051.08 162.949 1058.12 164.152C1065.17 165.183 1071.44 166.644 1076.94 168.535V157.192C1076.94 145.85 1073.59 136.828 1066.89 130.126C1060.18 123.424 1050.9 120.073 1039.05 120.073C1032 120.073 1024.96 121.448 1017.91 124.197C1010.86 126.775 1003.56 130.642 995.999 135.797L989.297 123.424C998.061 117.409 1006.65 112.941 1015.07 110.02C1023.49 106.927 1032.09 105.38 1040.85 105.38C1057.35 105.38 1070.41 110.106 1080.03 119.558C1089.66 129.009 1094.47 142.07 1094.47 158.739V220.863C1094.47 225.502 1096.62 227.908 1100.91 228.08V242C1097.13 242.516 1094.47 242.687 1092.92 242.516C1088.63 242.344 1085.36 240.969 1083.13 238.391C1080.89 235.813 1079.69 233.064 1079.52 230.142L1079.26 220.347C1073.25 228.08 1065.43 234.095 1055.8 238.391C1046.18 242.516 1036.38 244.578 1026.42 244.578C1017.65 244.578 1009.83 242.773 1002.96 239.164C996.085 235.384 990.672 230.4 986.719 224.214C982.939 217.855 981.048 210.895 981.048 203.334ZM1071.01 213.645C1074.96 209.005 1076.94 204.709 1076.94 200.756V181.165C1065.08 176.525 1052.71 174.206 1039.82 174.206C1027.28 174.206 1017.14 176.697 1009.4 181.681C1001.67 186.665 997.804 193.453 997.804 202.045C997.804 209.435 1000.64 216.137 1006.31 222.151C1012.15 228.166 1020.23 231.174 1030.54 231.174C1038.96 231.174 1046.78 229.541 1054 226.276C1061.39 223.011 1067.06 218.8 1071.01 213.645ZM1123.16 283.244C1125.56 283.416 1127.88 283.502 1130.12 283.502C1132.35 283.673 1133.98 283.587 1135.02 283.244C1137.08 283.072 1138.97 281.869 1140.69 279.635C1142.58 277.573 1144.81 273.62 1147.39 267.777C1150.14 262.106 1153.83 253.514 1158.47 242L1099.96 107.7H1118.52L1167.75 223.956L1213.12 107.7H1230.65L1161.05 280.924C1159.16 285.907 1155.98 290.204 1151.51 293.813C1147.05 297.421 1141.12 299.312 1133.73 299.484C1132.18 299.655 1130.55 299.655 1128.83 299.484C1127.11 299.484 1125.22 299.312 1123.16 298.968V283.244Z" fill="#009FE3"/>
<g opacity="0.5">
<path opacity="0.5" d="M775.059 220.531C772.38 221.719 755.569 225.94 745.821 224.193C735.398 222.32 731.959 216.98 731.959 216.98L777.939 216.113L782.048 218.098L775.059 220.531Z" fill="#F8EBE0"/>
</g>
<path d="M786.442 213.015C786.158 208.519 781.061 206.399 773.186 205.686C765.302 204.973 754.954 204.926 754.954 204.926L755.014 204.88L736.204 204.251C735.184 208.393 735.37 213.332 739.806 217.535C746.352 223.727 773.824 217.18 773.824 217.18C773.824 217.18 767.548 227.469 765.214 248.17C763.275 265.392 758.602 276.02 758.602 276.02C758.602 276.02 757.675 280.172 757.61 282.301C757.53 284.728 759.017 283.769 760.191 284.067C762.782 284.728 765.852 278.191 765.852 278.191C765.852 278.191 766.672 272.297 767.902 268.681C770.064 262.326 774.728 252.411 778.502 241.931C784.145 226.355 786.577 215.14 786.442 213.015Z" fill="#F0BB8F"/>
<path d="M756.78 200.094C756.78 200.094 773.801 198.333 780.604 198.878C787.411 199.428 788.381 198.757 790.002 205.909C791.628 213.066 791.605 260.21 799.246 266.771C799.246 266.771 795.081 269.068 793.45 268.337C790.487 267.009 786.871 256.762 786.871 256.762C786.871 256.762 789.196 252.359 785.459 245.403C778.148 231.76 781.727 220.964 783.251 212.624L744.833 211.123L756.78 200.094Z" fill="#F0BB8F"/>
<path d="M764.571 252.988L764.575 252.998C764.575 252.998 768.494 251.376 773.195 255.416C774.943 251.208 776.811 246.642 778.507 241.936C784.14 226.355 786.577 215.14 786.442 213.015C786.302 210.881 785.054 209.278 782.948 208.118L768.21 207.629L756.398 219.962C765.153 219.245 773.824 217.18 773.824 217.18C773.824 217.18 767.548 227.468 765.214 248.17C765.023 249.848 764.804 251.446 764.571 252.988Z" fill="#4C3E35"/>
<path d="M793.832 240.603C794.438 252.639 795.803 263.817 799.246 266.776C799.246 266.776 795.081 269.073 793.45 268.341C790.487 267.013 786.871 256.767 786.871 256.767C786.871 256.767 789.196 252.364 785.459 245.407C784.774 244.131 784.21 242.887 783.712 241.657C786.405 241.181 791.097 240.45 793.832 240.622V240.603Z" fill="#F0BB8F"/>
<path d="M737.616 200.155L761.239 199.148C761.239 199.148 779.104 197.606 786.014 198.133C792.914 198.664 791.978 205.159 792.388 209.269C792.91 214.506 793.837 240.128 793.837 240.603C793.837 240.608 793.837 240.622 793.837 240.622C791.102 240.454 786.414 241.181 783.716 241.656C778.796 229.295 777.971 222.953 779.346 215.396C779.346 215.396 773.223 219.51 750.672 220.549C727.584 221.621 737.616 200.155 737.616 200.155Z" fill="#614F45"/>
<path d="M786.871 256.767C786.871 256.767 784.476 259.153 784.998 262.731C785.524 266.296 785.254 269.017 785.03 270.331L786.605 270.531L787.542 262.675C787.542 262.675 790.487 266.543 791.116 268.56C791.745 270.587 790.817 271.062 798.925 272.078C802.913 272.581 806.785 271.966 806.18 270.387C805.774 269.352 800.672 267.563 799.246 266.771C799.246 266.771 793.953 268.299 786.871 256.767Z" fill="#614F45"/>
<path d="M765.801 278.606C766.3 276.286 763.173 283.47 760.736 282.459C758.304 281.448 758.854 277.884 758.607 276.025C758.607 276.025 752.913 290.66 758.369 291.652C761.906 292.305 764.371 285.246 765.801 278.606Z" fill="#614F45"/>
<path d="M763.369 199.493C763.369 199.493 767.124 188.133 766.225 182.155C765.33 176.177 772.222 172.45 772.222 172.45L769.766 199.041L763.369 199.493Z" fill="#ED1C24"/>
<g opacity="0.5">
<path opacity="0.5" d="M789.275 200.406C786.601 203.3 769.216 210.778 766.206 210.778C762.017 210.778 746.38 202.657 746.38 202.657L789.275 200.406Z" fill="#4C3E35"/>
</g>
<g opacity="0.7">
<g opacity="0.7">
<path opacity="0.7" d="M763.369 199.493C763.369 199.493 767.124 188.133 766.225 182.155C765.33 176.177 772.222 172.45 772.222 172.45L769.766 199.041L763.369 199.493Z" fill="#ED1C24"/>
</g>
</g>
<path d="M749.716 142.597C748.98 144.274 743.398 145.234 744.27 150.97C745.146 156.71 754.455 151.953 754.455 151.953L756.491 143.375L753.877 139.521L749.716 142.597Z" fill="#713C1F"/>
<path d="M763.97 141.991C762.474 144.558 762.195 147.331 762.726 149.031C763.257 150.727 766.393 152.778 764.622 155.322C762.847 157.88 753.123 154.94 753.123 154.94L763.97 141.991Z" fill="#713C1F"/>
<path d="M740.006 185.002C739.671 182.631 739.098 180.054 738.529 177.813C739.223 175.707 739.904 173.596 740.71 171.527C740.742 171.495 740.794 171.476 740.784 171.42C740.78 171.397 740.78 171.369 740.775 171.345C740.78 171.331 740.784 171.327 740.789 171.313C740.798 171.29 740.77 171.29 740.77 171.271C739.769 164.412 742.727 157.498 743.636 150.62C747.881 149.73 751.832 149.558 752.009 148.826C752.251 147.82 754.101 139.754 754.101 139.754L762.474 144.554C761.402 148.309 760.848 152.545 763.252 153.397C766.355 154.506 770.749 155.41 770.875 161.234C770.996 167.049 765.689 177.496 765.908 184.83C766.113 192.169 762.619 193.846 762.619 193.846L738.734 200.602C738.734 200.607 740.817 190.841 740.006 185.002Z" fill="#F0BB8F"/>
<path d="M770.157 137.355C770.157 137.355 773.438 134.489 772.743 130.757C772.203 127.863 771.103 122.067 766.323 120.893C760.526 119.481 770.157 137.355 770.157 137.355Z" fill="#713C1F"/>
<path d="M769.845 138.38C770.148 139.158 769.766 140.025 768.988 140.314L767.409 140.924C766.64 141.227 765.768 140.849 765.479 140.076C765.172 139.307 765.559 138.436 766.328 138.128L767.916 137.513C768.681 137.229 769.543 137.616 769.845 138.38Z" fill="#EF384C"/>
<path d="M771.485 131.041C771.318 126.13 769.561 120.856 762.847 120.008C755.769 119.113 751.203 124.532 750.537 128.409C749.87 132.276 750.234 134.839 750.387 135.663C750.546 136.483 752.102 139.302 753.873 139.526C756.398 139.843 771.485 131.041 771.485 131.041Z" fill="#713C1F"/>
<path d="M753.835 137.746C753.915 139.149 753.295 141.078 752.945 143.105C753.407 143.496 754.19 144.255 754.781 144.703C758.695 147.703 762.427 148.416 762.427 148.416C762.427 148.416 762.059 147.652 761.486 146.525L753.901 137.718C753.887 137.737 753.863 137.746 753.835 137.746Z" fill="#E8AB79"/>
<path d="M753.575 137.905C753.887 139.349 753.891 141.269 755.923 143.347C757.95 145.448 761.267 148.277 762.428 148.421C763.578 148.565 764.431 149.008 766.551 146.301C768.681 143.598 770.144 142.396 770.642 139.424C771.127 136.446 773.079 130.496 769.645 127.761C767.115 125.734 762.525 125.958 759.86 128.078C757.172 130.207 757.004 131.106 755.681 134.834C755.681 134.834 754.036 131.931 753.258 131.726C752.484 131.512 751.743 131.931 751.99 133.632C752.228 135.314 752.661 135.109 752.61 135.943C752.559 136.796 752.545 137.634 752.927 137.988C753.407 138.422 753.575 137.905 753.575 137.905Z" fill="#F0BB8F"/>
<path d="M768.42 126.969C768.42 126.969 762.525 134.969 755.634 135.519L754.022 127.342L760.801 123.502L768.42 126.969Z" fill="#713C1F"/>
<path d="M767.068 127.109C767.068 127.109 769.291 132.267 771.914 134.065C771.914 134.065 773.368 127.435 769.906 123.814L767.068 127.109Z" fill="#713C1F"/>
<path d="M736.227 178.721C736.227 178.721 732.444 173.382 732.579 168.857C732.775 162.427 734.694 152.307 740.933 150.699C742.373 150.327 744.582 150.285 746.366 150.052C747.941 149.842 749.204 149.693 749.204 149.693C749.204 149.693 750.467 157.376 758.98 158.406C763.928 159.007 765.027 153.97 765.027 153.97C765.027 153.97 766.374 154.325 766.71 154.441C767.161 154.595 768.033 155.131 768.033 155.131C768.033 155.131 771.7 164.012 772.236 166.113C772.949 168.918 774.216 173.382 769.734 177.664C769.734 177.664 764.38 192.788 767.45 202.881C767.45 202.881 749.651 204.949 737.313 200.565C737.313 200.565 739.904 189.219 738.292 184.993C737.336 182.496 737.788 183.157 736.227 178.721Z" fill="#ED1C24"/>
<path d="M771.02 161.015C771.029 161.421 770.954 161.896 770.908 162.348C769.687 159.156 768.098 155.312 768.037 155.154C769.687 156.188 770.954 157.94 771.02 161.015Z" fill="#ED1C24"/>
<g opacity="0.5">
<g opacity="0.5">
<g opacity="0.5">
<path opacity="0.5" d="M771.02 161.015C771.029 161.421 770.954 161.896 770.908 162.348C769.687 159.156 768.098 155.312 768.037 155.154C769.687 156.188 770.954 157.94 771.02 161.015Z" fill="#ED1C24"/>
</g>
</g>
</g>
<g opacity="0.7">
<path opacity="0.7" d="M737.308 200.56C737.308 200.56 738.748 194.247 738.813 189.284C738.823 189.284 738.865 189.275 738.865 189.275C738.865 189.275 741.059 188.017 744.684 191.32C748.309 194.629 766.453 199.498 766.453 199.498C766.453 199.498 766.57 199.54 766.77 199.61C766.924 200.733 767.129 201.837 767.446 202.876C767.446 202.876 749.768 204.945 737.308 200.56Z" fill="#ED1C24"/>
</g>
<path d="M759.422 120.073C758.145 120.474 750.234 122.067 748.514 130.687C747.969 133.418 748.44 137.779 749.716 142.601L753.057 144.288C753.057 144.288 753.691 140.682 753.873 139.526C753.873 139.526 749.889 137.266 750.439 132.187C750.984 127.113 755.625 124.49 755.625 124.49L759.422 120.073Z" fill="#713C1F"/>
<g opacity="0.7">
<path opacity="0.7" d="M743.673 164.794C743.109 167.856 740.766 171.271 740.766 171.271L739.158 180.459L742.765 182.421C742.765 182.421 741.716 178.013 742.522 174.961C743.328 171.909 743.673 164.794 743.673 164.794Z" fill="#ED1C24"/>
</g>
<path d="M765.382 208.16L747.718 201.79L771.826 193.916L789.289 199.419L765.382 208.16Z" fill="#C3C6D5"/>
<path d="M767.879 207.246L787.02 200.248L774.649 196.348L755.238 202.69L767.879 207.246Z" fill="#827A7F"/>
<path d="M746.981 193.343C751.632 195.705 755.96 196.763 756.696 197.052C757.433 197.341 757.325 198.985 759.059 199.577C760.797 200.169 762.195 199.628 762.875 199.973C763.555 200.313 763.35 201.637 764.711 202.377C766.067 203.114 766.779 202.554 767.46 202.839C768.145 203.128 769.314 203.006 769.123 202.363C768.932 201.716 767.646 197.21 766.873 196.544C766.094 195.882 760.531 195.323 758.802 194.522C757.074 193.72 748.845 188.502 748.845 188.502L746.981 193.343Z" fill="#F0BB8F"/>
<path d="M765.367 209.148L767.618 187.612L791.721 179.737L789.275 200.406L765.367 209.148Z" fill="#DBDFE8"/>
<path d="M747.718 201.79L747.699 202.904L765.368 209.148L765.382 208.16L747.718 201.79Z" fill="#C3C6D5"/>
<g opacity="0.5">
<path opacity="0.5" d="M747.718 201.79L747.699 202.904L765.368 209.148L765.382 208.16L747.718 201.79Z" fill="#C3C6D5"/>
</g>
<path d="M765.368 209.148L764.79 208.943L767.031 187.29L767.618 187.612L765.368 209.148Z" fill="#DBDFE8"/>
<g opacity="0.5">
<path opacity="0.5" d="M765.368 209.148L764.79 208.943L767.031 187.29L767.618 187.612L765.368 209.148Z" fill="#C3C6D5"/>
</g>
<path d="M791.721 179.737L791.148 179.439L767.031 187.29L767.618 187.612L791.721 179.737Z" fill="#ECF0FA"/>
<path d="M777.067 196.357C777.925 197.247 779.495 197.126 780.567 196.087C781.643 195.048 781.815 193.487 780.953 192.597C780.091 191.707 778.526 191.828 777.45 192.867C776.383 193.906 776.205 195.467 777.067 196.357Z" fill="white"/>
<path d="M734.117 159.086C730.972 175.618 727.859 181.866 733.427 186.363C740.044 191.707 745.845 193.017 753.803 196.469L755.988 192.555C755.988 192.555 755.238 192.262 751.701 189.126C747.182 185.123 742.918 181.992 739.154 180.459L740.761 171.271L734.117 159.086Z" fill="#ED1C24"/>
<g opacity="0.3">
<path opacity="0.3" d="M755.993 192.555L755.611 193.24C755.611 193.24 749.67 188.101 746.679 186.083C743.687 184.066 739.13 181.34 739.13 181.34L739.158 180.459C742.923 181.992 747.186 185.123 751.706 189.126C755.243 192.262 755.993 192.555 755.993 192.555Z" fill="#ED1C24"/>
</g>
<path d="M1234.71 329.615C1245 305.474 1268.28 306.363 1274.81 291.05C1281.33 275.742 1262.63 264.027 1262.63 264.027C1262.63 264.027 1241.23 258.649 1234.7 273.958C1228.18 289.268 1245 305.474 1234.71 329.615Z" fill="#F24F25"/>
<g opacity="0.5">
<g opacity="0.5">
<path opacity="0.5" d="M1241.2 318.046C1242.9 300.724 1232.31 292.406 1238.48 277.942C1246.19 259.841 1267.14 264.343 1267.14 264.343C1267.14 264.343 1268.76 265.438 1270.81 267.461C1267.65 263.423 1264.31 261.161 1264.31 261.161C1264.31 261.161 1243.36 256.659 1235.64 274.76C1227.92 292.862 1246.46 301.335 1234.29 329.88C1236.39 324.952 1238.73 321.116 1241.2 318.046Z" fill="white"/>
</g>
</g>
<path d="M1244.24 307.564C1251.33 290.946 1267.36 291.557 1271.85 281.017C1276.34 270.479 1263.47 262.414 1263.47 262.414C1263.47 262.414 1248.74 258.712 1244.24 269.251C1239.75 279.79 1251.33 290.946 1244.24 307.564Z" fill="#FFD553"/>
<g opacity="0.3">
<path opacity="0.3" d="M1273.22 271.059C1274 274.932 1273.77 279.362 1271.69 284.238C1265.31 299.21 1250.4 296.308 1238.55 311.007C1238.56 316.273 1237.48 322.384 1234.29 329.882C1246.46 301.338 1266.63 309.368 1274.35 291.263C1277.82 283.109 1276.13 276.198 1273.22 271.059Z" fill="#261E1E"/>
</g>
<path d="M1257.33 199.901C1257.77 200.425 1258.01 201.13 1257.93 201.875L1254.59 232.135C1254.4 233.797 1252.74 234.835 1251.15 234.318C1241.26 231.1 1229.03 234.56 1219.85 238.446C1217.7 239.352 1215.71 240.286 1213.97 241.16C1211.66 242.315 1209.27 239.771 1210.54 237.527C1229.98 203.242 1248.34 199.159 1255.3 198.982C1256.11 198.956 1256.85 199.321 1257.33 199.901Z" fill="#EC1C24"/>
<g opacity="0.6">
<path opacity="0.6" d="M1256.65 199.401C1231.1 207.763 1217.71 232.55 1216.58 234.863C1215.5 237.091 1217.64 237.755 1219.17 237.945C1217.02 238.851 1215.03 239.784 1213.28 240.658C1210.98 241.814 1208.58 239.269 1209.86 237.025C1229.29 202.74 1247.66 198.657 1254.61 198.481C1255.44 198.455 1256.17 198.822 1256.65 199.401Z" fill="white"/>
</g>
<path d="M1317.04 227.641C1319.14 230.266 1322.27 235.513 1323.4 244.411C1324.6 253.923 1323.53 267.605 1316.48 286.703C1315.59 289.126 1312.1 288.941 1311.49 286.429C1309.83 279.579 1306.77 269.914 1301.5 262.321C1299.07 258.814 1296.17 255.754 1292.72 253.617C1291.3 252.737 1291.02 250.794 1292.17 249.582L1313.12 227.496C1314.21 226.357 1316.05 226.412 1317.04 227.641Z" fill="#EC1C24"/>
<g opacity="0.35">
<path opacity="0.35" d="M1317.04 227.641C1319.14 230.266 1318.77 230.41 1321.88 238.259C1319.07 244.978 1310.07 255.866 1301.5 262.318C1299.07 258.811 1296.17 255.751 1292.72 253.614C1291.3 252.734 1291.02 250.791 1292.17 249.579L1313.12 227.493C1314.21 226.357 1316.05 226.412 1317.04 227.641Z" fill="#261E1E"/>
</g>
<path d="M1262.9 266.499C1268.25 268.86 1274.72 267.85 1281.74 264.073C1282.47 263.677 1283.21 263.253 1283.95 262.799C1285.27 261.993 1286.61 261.094 1287.96 260.102C1291.21 257.723 1294.54 254.826 1297.88 251.471C1300.3 249.049 1302.72 246.386 1305.13 243.5C1307.31 240.904 1309.48 238.129 1311.62 235.189C1313.6 232.466 1315.57 229.611 1317.51 226.615C1323.69 217.075 1329.58 206.212 1334.8 194.398C1343.32 175.103 1346.94 155.391 1347.76 138.516C1348.98 113.43 1344 94.6065 1339.67 92.6924C1335.2 90.7197 1318.31 99.4951 1300.88 116.905C1300.67 117.11 1300.46 117.319 1300.25 117.531C1289.42 128.463 1278.42 142.713 1270.11 159.771C1269.3 161.419 1268.52 163.097 1267.78 164.797C1262.85 175.956 1258.95 186.991 1256.09 197.448C1255.92 198.058 1255.76 198.668 1255.6 199.276C1255.5 199.673 1255.39 200.065 1255.29 200.457C1254.52 203.495 1253.83 206.479 1253.24 209.401C1252.51 212.964 1251.92 216.439 1251.46 219.794C1250.95 223.525 1250.62 227.107 1250.45 230.52C1250.3 233.686 1250.29 236.708 1250.44 239.558C1250.51 240.922 1250.6 242.246 1250.75 243.53C1251.02 246.181 1251.45 248.661 1252.02 250.944C1253.95 258.677 1257.56 264.143 1262.9 266.499Z" fill="#EAEAEA"/>
<g opacity="0.35">
<g opacity="0.35">
<path opacity="0.35" d="M1287.63 259.7C1287.75 259.833 1287.85 259.964 1287.96 260.099C1286.61 261.092 1285.27 261.991 1283.95 262.794C1283.25 263.221 1282.56 263.622 1281.87 263.996L1282.07 263.217L1282.05 263.209C1283.88 262.225 1285.74 261.055 1287.63 259.7Z" fill="#261E1E"/>
</g>
<g opacity="0.35">
<path opacity="0.35" d="M1281.54 264.416L1281.82 263.334L1281.61 263.228L1281.95 263.026C1283.77 262.042 1285.64 260.867 1287.5 259.529L1287.66 259.415L1287.79 259.566C1287.9 259.702 1288.01 259.836 1288.12 259.97L1288.26 260.142L1288.08 260.273C1286.74 261.261 1285.38 262.172 1284.06 262.98C1283.34 263.419 1282.63 263.823 1281.96 264.187L1281.54 264.416ZM1282.25 263.342L1282.19 263.578C1282.73 263.279 1283.28 262.957 1283.84 262.616C1285.1 261.851 1286.38 260.991 1287.66 260.061C1287.64 260.036 1287.62 260.011 1287.59 259.986C1285.8 261.264 1284 262.391 1282.25 263.342Z" fill="#261E1E"/>
</g>
</g>
<g opacity="0.35">
<path opacity="0.35" d="M1347.94 137.588C1347.13 154.46 1343.53 174.175 1335.03 193.482C1329.82 205.301 1323.95 216.172 1317.78 225.718C1315.85 228.713 1313.88 231.574 1311.9 234.298C1309.76 237.241 1307.59 240.017 1305.42 242.619C1303.01 245.507 1300.59 248.17 1298.18 250.597C1294.62 254.181 1291.08 257.236 1287.63 259.7C1285.74 261.052 1283.88 262.225 1282.05 263.211L1282.06 263.219L1281.87 263.998C1281.87 263.998 1281.87 263.998 1281.86 263.999C1276.85 266.719 1272.12 268.03 1267.87 267.713C1266.12 267.588 1264.46 267.186 1262.9 266.498C1257.56 264.141 1253.94 258.678 1252.01 250.943C1251.44 248.664 1251.01 246.184 1250.74 243.533C1256.37 243.245 1263.57 244.688 1270.86 247.888C1271.94 248.361 1272.98 248.857 1274 249.376C1276.93 250.875 1280.49 250.359 1282.8 248.022C1303.44 227.148 1316.9 205.21 1325.61 184.594C1326.18 183.24 1324.64 181.971 1323.41 182.778C1317.34 186.776 1309.41 187.709 1302.26 184.555C1291.04 179.618 1285.95 166.517 1290.89 155.303C1295.83 144.085 1308.93 138.994 1320.15 143.937C1325.98 146.507 1330.16 151.289 1332.13 156.866C1332.61 158.238 1334.61 158.127 1334.96 156.715C1337.03 148.558 1338.43 140.858 1339.34 133.806C1342.6 108.682 1339.78 91.775 1339.78 91.775C1344.12 93.6824 1349.12 112.496 1347.94 137.588Z" fill="#261E1E"/>
</g>
<path d="M1340.78 92.3729C1340.85 92.45 1340.91 92.5348 1340.98 92.6215C1341.1 92.7825 1341.23 92.9589 1341.36 93.1518C1341.42 93.2521 1341.49 93.3504 1341.55 93.4565C1342.01 94.1846 1342.46 95.0809 1342.89 96.1279C1342.95 96.2775 1343.02 96.43 1343.08 96.5844C1343.51 97.673 1343.93 98.9114 1344.33 100.29C1344.38 100.484 1344.44 100.687 1344.5 100.888C1344.63 101.35 1344.75 101.827 1344.88 102.32C1344.93 102.534 1344.98 102.756 1345.04 102.979C1345.37 104.334 1345.67 105.796 1345.95 107.352C1345.99 107.58 1346.03 107.809 1346.07 108.044C1346.32 109.484 1346.55 111.001 1346.75 112.587C1346.79 112.868 1346.82 113.152 1346.86 113.441C1347.05 115.021 1347.21 116.668 1347.34 118.378C1347.37 118.692 1347.39 119.006 1347.41 119.324C1347.69 123.134 1347.82 127.232 1347.76 131.559C1347.76 131.922 1347.75 132.285 1347.75 132.648C1347.73 133.375 1347.71 134.107 1347.69 134.851C1347.68 135.219 1347.66 135.592 1347.65 135.961C1347.64 136.071 1347.64 136.18 1347.63 136.288L1347.63 136.286C1345.25 134.492 1342.38 132.708 1339.53 131.079C1336.93 129.595 1334.34 128.245 1332.15 127.154C1325.08 121.98 1316.82 118.578 1308.05 117.311L1305.55 116.949L1300.06 116.151C1316.65 99.3611 1332.88 90.3752 1338.51 91.0311C1338.72 91.0526 1338.91 91.0936 1339.09 91.1404C1339.22 91.1748 1339.34 91.2179 1339.45 91.2668C1339.88 91.4664 1340.33 91.838 1340.78 92.3729Z" fill="#EC1C24"/>
<g opacity="0.6">
<path opacity="0.6" d="M1337.77 91.4528C1334.47 93.5773 1325.28 99.6346 1317.33 106.23C1312.19 110.493 1307.81 114.511 1304.81 117.37L1299.32 116.572C1315.91 99.7819 1332.14 90.796 1337.77 91.4528Z" fill="white"/>
</g>
<g opacity="0.35">
<path opacity="0.35" d="M1340.78 92.3729C1340.85 92.45 1340.91 92.5348 1340.98 92.6215C1341.1 92.7825 1341.23 92.9589 1341.36 93.1518C1341.42 93.2521 1341.49 93.3505 1341.55 93.4565C1342.01 94.1846 1342.46 95.0809 1342.89 96.1279C1342.95 96.2775 1343.02 96.43 1343.08 96.5844C1343.51 97.673 1343.93 98.9114 1344.33 100.29C1344.38 100.484 1344.44 100.687 1344.5 100.888C1344.63 101.35 1344.75 101.827 1344.88 102.32C1344.93 102.534 1344.98 102.756 1345.04 102.979C1345.37 104.334 1345.67 105.796 1345.95 107.352C1345.99 107.58 1346.03 107.809 1346.07 108.044C1346.32 109.484 1346.55 111.001 1346.75 112.587C1346.79 112.868 1346.82 113.152 1346.86 113.441C1347.05 115.021 1347.21 116.668 1347.34 118.378C1347.37 118.692 1347.39 119.006 1347.41 119.324C1347.69 123.134 1347.82 127.232 1347.76 131.559C1347.76 131.922 1347.75 132.285 1347.75 132.648C1347.73 133.375 1347.71 134.107 1347.69 134.851C1347.68 135.219 1347.66 135.592 1347.65 135.961C1347.64 136.071 1347.64 136.176 1347.63 136.289C1345.25 134.495 1342.38 132.71 1339.53 131.082C1340.48 120.844 1342.08 98.7114 1339.09 91.1443C1339.21 91.1786 1339.33 91.2217 1339.45 91.2707C1339.88 91.4664 1340.33 91.838 1340.78 92.3729Z" fill="#261E1E"/>
</g>
<path d="M1326.96 170.87C1323.59 178.522 1316.04 183.033 1308.17 182.895C1305.58 182.849 1302.94 182.297 1300.42 181.183C1299.48 180.771 1298.59 180.294 1297.75 179.762C1289.47 174.526 1286.04 163.878 1290.11 154.639C1290.38 154.027 1290.67 153.441 1290.99 152.871C1295.1 145.563 1303.26 141.672 1311.33 142.81C1313.12 143.06 1314.91 143.56 1316.65 144.326C1326.83 148.807 1331.44 160.691 1326.96 170.87Z" fill="#418BF9"/>
<path d="M1315.07 182.132C1312.89 182.867 1310.56 183.24 1308.16 183.199C1305.44 183.15 1302.8 182.567 1300.3 181.463C1299.35 181.048 1298.44 180.563 1297.58 180.02C1289.11 174.667 1285.78 163.703 1289.82 154.515C1290.09 153.892 1290.4 153.29 1290.72 152.719C1294.8 145.447 1303.1 141.343 1311.37 142.505C1313.22 142.762 1315.03 143.279 1316.77 144.042C1321.77 146.244 1325.61 150.257 1327.59 155.35C1329.56 160.439 1329.44 165.994 1327.24 170.991C1324.88 176.359 1320.41 180.332 1315.07 182.132ZM1302.24 143.963C1297.67 145.503 1293.69 148.68 1291.25 153.021C1290.94 153.572 1290.64 154.158 1290.38 154.762C1286.45 163.675 1289.69 174.311 1297.91 179.504C1298.74 180.03 1299.62 180.503 1300.54 180.904C1302.97 181.975 1305.53 182.542 1308.17 182.587C1316.18 182.728 1323.45 178.082 1326.68 170.746C1328.81 165.896 1328.93 160.507 1327.01 155.569C1325.09 150.631 1321.37 146.734 1316.52 144.601C1314.83 143.862 1313.07 143.36 1311.28 143.11C1308.2 142.676 1305.11 142.999 1302.24 143.963Z" fill="#261E1E"/>
<path d="M1326.96 170.869C1323.59 178.521 1316.04 183.032 1308.17 182.893C1305.58 182.847 1302.94 182.296 1300.42 181.182C1299.48 180.77 1298.59 180.293 1297.75 179.761C1289.47 174.525 1286.03 163.877 1290.11 154.638C1290.37 154.026 1290.67 153.44 1290.99 152.87C1295.09 145.562 1303.26 141.67 1311.33 142.809C1313.12 143.059 1314.91 143.559 1316.65 144.324C1326.83 148.806 1331.44 160.69 1326.96 170.869Z" fill="#418BF9"/>
<g opacity="0.6">
<path opacity="0.6" d="M1318.19 146.505C1316.45 145.743 1314.66 145.24 1312.87 144.989C1304.8 143.854 1296.63 147.743 1292.53 155.051C1292.2 155.621 1291.91 156.207 1291.64 156.819C1288.88 163.093 1289.58 170.015 1292.9 175.451C1288.3 169.776 1286.95 161.788 1290.1 154.637C1290.37 154.024 1290.66 153.439 1290.99 152.868C1295.09 145.56 1303.25 141.669 1311.32 142.807C1313.12 143.057 1314.91 143.557 1316.65 144.323C1320.55 146.044 1323.63 148.856 1325.7 152.244C1323.75 149.835 1321.22 147.841 1318.19 146.505Z" fill="white"/>
</g>
<path d="M1315.35 183.067C1310.27 184.776 1304.83 184.534 1299.9 182.362C1294.66 180.057 1290.63 175.848 1288.56 170.513C1286.49 165.179 1286.61 159.355 1288.92 154.118C1291.23 148.88 1295.44 144.854 1300.77 142.783C1306.11 140.712 1311.93 140.839 1317.16 143.145C1322.4 145.45 1326.43 149.659 1328.5 154.994C1330.57 160.328 1330.44 166.153 1328.14 171.388C1325.83 176.627 1321.62 180.653 1316.29 182.724C1315.98 182.848 1315.66 182.961 1315.35 183.067ZM1302.54 144.884C1302.26 144.977 1301.98 145.077 1301.71 145.186C1297.01 147.008 1293.31 150.551 1291.28 155.158C1289.25 159.765 1289.14 164.888 1290.96 169.581C1292.79 174.274 1296.33 177.976 1300.94 180.006C1305.54 182.033 1310.66 182.145 1315.36 180.323C1320.05 178.5 1323.75 174.958 1325.78 170.351C1327.81 165.744 1327.92 160.621 1326.1 155.929C1324.27 151.236 1320.73 147.534 1316.12 145.504C1311.79 143.595 1307 143.381 1302.54 144.884Z" fill="#261E1E"/>
<path d="M1321.48 159.212C1323.43 166.359 1319.22 173.742 1312.07 175.698C1308.53 176.669 1304.93 176.121 1301.97 174.46C1298.94 172.76 1296.57 169.905 1295.59 166.297C1293.63 159.15 1297.84 151.767 1304.99 149.811C1310.07 148.42 1315.26 150.144 1318.55 153.815C1319.89 155.316 1320.91 157.142 1321.48 159.212Z" fill="#01D3EC"/>
<path d="M1312.92 175.756C1312.67 175.841 1312.41 175.917 1312.15 175.989C1308.66 176.945 1304.98 176.498 1301.82 174.724C1298.59 172.907 1296.27 169.943 1295.3 166.374C1294.33 162.84 1294.8 159.136 1296.61 155.954C1298.43 152.77 1301.37 150.482 1304.91 149.516C1309.97 148.133 1315.28 149.7 1318.77 153.61C1320.2 155.198 1321.2 157.055 1321.77 159.13C1323.7 166.172 1319.75 173.455 1312.92 175.756ZM1304.33 150.332C1301.28 151.359 1298.75 153.44 1297.14 156.258C1295.4 159.302 1294.96 162.838 1295.88 166.216C1296.81 169.625 1299.03 172.458 1302.11 174.193C1305.14 175.889 1308.65 176.316 1311.99 175.403C1318.95 173.49 1323.09 166.268 1321.18 159.292L1321.47 159.212L1321.18 159.292C1320.63 157.308 1319.67 155.533 1318.31 154.018C1314.97 150.281 1309.89 148.783 1305.06 150.103C1304.82 150.176 1304.57 150.25 1304.33 150.332Z" fill="#261E1E"/>
<g opacity="0.35">
<path opacity="0.35" d="M1307.89 152.994C1300.74 154.95 1296.53 162.333 1298.49 169.48C1298.87 170.859 1299.45 172.128 1300.19 173.265C1298.03 171.548 1296.37 169.162 1295.59 166.299C1293.63 159.151 1297.84 151.769 1304.99 149.813C1310.07 148.422 1315.26 150.146 1318.54 153.817C1318.99 154.32 1319.41 154.865 1319.78 155.438C1316.55 152.871 1312.18 151.82 1307.89 152.994Z" fill="#261E1E"/>
</g>
<path d="M1313.23 176.689C1312.97 176.779 1312.69 176.862 1312.41 176.94C1308.66 177.967 1304.73 177.484 1301.34 175.583C1297.88 173.637 1295.39 170.459 1294.35 166.636C1293.31 162.848 1293.81 158.881 1295.76 155.469C1297.7 152.057 1300.86 149.609 1304.65 148.569C1310.07 147.086 1315.76 148.767 1319.51 152.958C1321.03 154.659 1322.11 156.649 1322.72 158.873C1324.78 166.416 1320.56 174.223 1313.23 176.689ZM1304.65 151.263C1301.82 152.213 1299.48 154.138 1298 156.746C1296.39 159.56 1295.98 162.833 1296.83 165.957C1297.69 169.11 1299.74 171.731 1302.6 173.336C1305.39 174.902 1308.64 175.299 1311.73 174.454C1318.17 172.691 1322 166.002 1320.23 159.552C1319.73 157.719 1318.84 156.075 1317.58 154.676C1314.49 151.22 1309.8 149.834 1305.33 151.055C1305.1 151.117 1304.87 151.187 1304.65 151.263Z" fill="#261E1E"/>
<path d="M1273.02 272.143L1250.33 262.714C1247.58 261.575 1246.67 257.892 1248.4 254.988L1250.91 250.79L1281.06 263.31L1279.85 268.051C1279.02 271.334 1275.76 273.282 1273.02 272.143Z" fill="#EC1C24"/>
<g opacity="0.5">
<g opacity="0.5">
<path opacity="0.5" d="M1249.08 255.492L1251.59 251.293L1281.73 263.813L1281.69 264.004L1253.88 252.456L1251.37 256.655C1249.89 259.134 1250.35 262.178 1252.22 263.724L1251 263.218C1248.26 262.078 1247.35 258.395 1249.08 255.492Z" fill="white"/>
</g>
</g>
<g opacity="0.35">
<path opacity="0.35" d="M1281.05 263.314L1279.85 268.052C1279.02 271.334 1275.77 273.285 1273.02 272.146L1264.8 268.73C1266.77 268.36 1268.57 266.708 1269.15 264.396L1270.35 259.653L1250.53 251.417L1250.91 250.791L1281.05 263.314Z" fill="#261E1E"/>
</g>
<path d="M1316.13 227.248L1303.51 219.178C1292.29 212.001 1280.07 206.644 1267.19 203.257L1254.56 199.94L1255.18 197.581L1267.81 200.898C1280.94 204.346 1293.39 209.805 1304.83 217.122L1317.44 225.193L1316.13 227.248Z" fill="#261E1E"/>
<g opacity="0.35">
<path opacity="0.35" d="M1326.96 170.869C1323.59 178.521 1316.04 183.032 1308.17 182.893C1306.37 182.642 1304.57 182.141 1302.82 181.372C1302.7 181.317 1302.58 181.262 1302.46 181.205C1310.29 181.299 1317.79 176.796 1321.14 169.18C1325.57 159.129 1321.12 147.408 1311.2 142.804C1311.24 142.806 1311.29 142.804 1311.33 142.809C1313.12 143.059 1314.91 143.559 1316.65 144.324C1326.83 148.806 1331.44 160.69 1326.96 170.869Z" fill="#261E1E"/>
</g>
<g opacity="0.3">
<path opacity="0.3" d="M1217.62 238.613C1217.62 238.613 1224.2 231.763 1232.93 228.979C1239.29 226.955 1244.25 221.967 1246.5 215.685C1248.02 211.443 1250.29 206.084 1253.7 199.549L1255.6 199.272C1255.6 199.272 1248 224.419 1250.38 234.032C1250.38 234.032 1232.97 229.805 1217.62 238.613Z" fill="#261E1E"/>
</g>
<path d="M1347.13 137.775C1319.87 116.292 1300.08 117.53 1299.89 117.544L1299.69 115.11C1300.53 115.044 1320.55 113.722 1348.64 135.857L1347.13 137.775Z" fill="#261E1E"/>
<rect y="267.071" width="218.018" height="70.8557" fill="#ED1C24"/>
<path d="M111.223 303.26H115.641C118.604 303.26 120.751 302.71 122.081 301.61C123.412 300.51 124.077 298.877 124.077 296.713C124.077 294.513 123.359 292.934 121.922 291.976C120.485 291.018 118.32 290.539 115.428 290.539H111.223V303.26ZM111.223 308.529V324.071H104.862V285.163H115.854C120.875 285.163 124.592 286.103 127.005 287.984C129.418 289.864 130.624 292.703 130.624 296.5C130.624 301.344 128.105 304.794 123.066 306.853L134.057 324.071H126.819L117.504 308.529H111.223ZM167.686 324.071H161.299V306.533H143.361V324.071H137.001V285.163H143.361V301.077H161.299V285.163H167.686V324.071Z" fill="white"/>
<g opacity="0.5">
<path opacity="0.5" d="M34.3716 277.672C37.7916 275.99 45.2887 273.665 54.8498 276.894L53.9459 270.049L41.9059 266.946L33.7705 272.309L34.3716 277.672Z" fill="#F8EBE0"/>
</g>
<path d="M23.6409 313.112C23.4312 314.798 23.352 316.224 21.7771 320.823C20.3513 324.989 16.3023 331.083 18.9675 333.231C21.4556 335.239 26.0918 335.608 28.3423 334.531C30.5928 333.455 31.9813 329.667 32.4938 326.293C33.0064 322.92 32.6756 320.818 33.4537 320.492C34.2318 320.166 35.1311 319.472 35.1824 317.301C35.2336 315.125 34.7537 311.024 34.7537 311.024L23.6409 313.112Z" fill="#7A553C"/>
<path d="M23.6595 316.15C27.7878 318.405 33.8311 316.639 33.8311 316.639C33.8311 316.639 34.7351 319.355 33.4677 319.747C32.1957 320.138 32.219 322.063 31.9534 323.875C31.6878 325.688 29.7634 332.444 26.8373 333.362C23.9158 334.28 18.9721 333.231 18.3571 330.892C18.3571 330.892 18.2639 331.013 18.1008 331.228C18.1241 332.048 18.3711 332.742 18.9721 333.231C21.4603 335.239 26.0964 335.608 28.3469 334.531C30.5975 333.455 31.9906 329.667 32.4985 326.293C33.0111 322.92 32.6802 320.818 33.4584 320.492C34.2365 320.166 35.1358 319.467 35.187 317.301C35.2243 315.726 34.9867 313.154 34.8515 311.849C32.3634 312.087 29.9498 312.441 29.9498 312.441L23.6595 316.15Z" fill="#694329"/>
<path d="M63.3021 312.138C63.6655 313.801 63.8752 315.213 65.8601 319.644C67.6633 323.661 72.2529 329.364 69.7973 331.75C67.5049 333.972 62.92 334.764 60.5809 333.902C58.2419 333.036 56.5086 329.392 55.6885 326.079C54.8731 322.766 55.0083 320.641 54.2022 320.39C53.3961 320.138 52.4409 319.528 52.1893 317.37C51.9377 315.213 52.0402 311.08 52.0402 311.08L63.3021 312.138Z" fill="#7A553C"/>
<path d="M63.5162 316.168C59.388 317.86 53.4844 316.588 53.4844 316.588C53.4844 316.588 52.8321 319.374 54.1321 319.649C55.4321 319.924 55.5859 321.839 56.0192 323.619C56.4525 325.403 58.9872 331.955 61.9786 332.602C64.9746 333.25 69.7972 331.754 70.1932 329.369C70.1932 329.369 70.3004 329.48 70.4821 329.681C70.5333 330.501 70.3516 331.214 69.7972 331.754C67.5047 333.977 62.9198 334.769 60.5808 333.907C58.2417 333.04 56.5084 329.396 55.6883 326.084C54.8729 322.771 55.0081 320.646 54.202 320.394C53.3959 320.143 52.4407 319.532 52.1891 317.375C52.0074 315.81 52.0121 313.224 52.026 311.914C54.5235 311.924 56.9604 312.054 56.9604 312.054L63.5162 316.168Z" fill="#694329"/>
<path d="M79.4843 239.423C79.1814 238.062 76.9822 234.852 75.4073 231.856C74.9553 230.756 74.4521 229.559 73.9303 228.333C73.9303 228.328 73.9256 228.328 73.9256 228.324V228.328C72.5138 225.044 70.9389 218.968 69.6948 216.876C66.7407 211.913 65.3243 208.749 59.691 206.872C54.0577 204.994 48.266 202.911 48.266 202.911L34.1246 202.319C31.0214 203.554 20.6914 207.179 18.0122 209.057C15.3284 210.935 10.6363 221.898 7.55178 233.165C7.31881 234.018 7.11848 234.772 6.93676 235.485C5.16617 240.066 5.34786 246.09 5.63209 247.921C5.91632 249.748 9.57398 251.579 11.722 252.329C13.8747 253.084 21.9914 249.384 21.9914 249.384L23.4918 256.956L63.3067 254.808L63.4838 245.233C63.4838 245.233 65.0727 248.457 67.3325 249.431C69.5923 250.4 72.4951 252.548 76.26 249.431C80.0248 246.305 79.9176 241.356 79.4843 239.423Z" fill="#FFD765"/>
<path d="M18.7158 215.85C18.8369 218.893 17.947 232.96 15.7897 234.991C13.6323 237.023 11.9829 237.4 10.8413 239.05C10.8413 239.05 12.7424 237.666 13.7581 237.978C13.7581 237.978 11.2187 239.8 11.6008 241.841C11.6008 241.841 12.8262 239.711 16.2975 238.803C19.7642 237.89 20.6122 235.504 20.6122 233.598C20.6122 231.693 19.7409 219.909 18.7158 215.85Z" fill="#FFC92E"/>
<path d="M57.9623 225.011L57.4265 217.197L60.1896 225.523L57.9623 225.011Z" fill="#FFC92E"/>
<path d="M20.7103 238.798C18.1057 239.05 15.8831 245.797 17.02 248.08C18.1616 250.363 23.492 248.08 23.492 248.08V240.839C23.4966 240.844 23.5106 238.533 20.7103 238.798Z" fill="#FFC92E"/>
<path d="M36.9296 274.41C37.9313 272.817 41.8173 271.116 43.6391 271.237C45.461 271.358 51.5322 273.786 51.5322 273.786L56.0193 253.14H31.7389L29.6748 263.773L36.9296 274.41Z" fill="#4C3E35"/>
<path d="M66.9785 236.506C67.5656 236.007 71.1161 235.229 71.7498 236.506C72.3835 237.782 72.7656 243.583 72.1319 244.935C71.4982 246.286 66.4986 245.615 65.8276 244.935C65.152 244.254 63.7542 242.54 64.7094 241.24C65.6599 239.94 66.9785 236.506 66.9785 236.506Z" fill="#FFC92E"/>
<path d="M23.9624 254.803C21.204 255.111 17.7187 257.515 18.1101 265.287C18.4968 273.059 20.78 306.696 20.6122 309.85C20.4445 313.009 20.6122 315.558 20.6122 315.558C20.6122 315.558 30.8863 318.232 37.4421 314.952C37.4421 314.952 36.7153 283.138 36.8317 277.309C36.9529 271.48 37.6844 261.401 37.4421 259.337C37.1998 257.273 37.4421 253.303 23.9624 254.803Z" fill="#4C3E35"/>
<path d="M36.8366 277.309C36.9577 271.48 37.6892 261.401 37.4469 259.337C37.2652 257.767 37.3398 255.102 31.4735 254.57C30.6162 263.475 32.5965 309.221 32.9133 316.303C34.5022 316.061 36.0584 315.642 37.4469 314.952C37.4423 314.952 36.7154 283.137 36.8366 277.309Z" fill="#614F45"/>
<path d="M63.3069 254.803C66.0653 255.111 69.5459 257.515 69.1592 265.287C68.7725 273.059 66.4893 306.696 66.6571 309.85C66.8248 313.009 66.6571 315.558 66.6571 315.558C66.6571 315.558 56.383 318.232 49.8272 314.952C49.8272 314.952 50.554 283.138 50.4329 277.309C50.3117 271.48 49.5802 261.401 49.8272 259.337C50.0695 257.273 49.8272 253.303 63.3069 254.803Z" fill="#4C3E35"/>
<path d="M50.4375 277.309C50.3164 271.48 49.5849 261.401 49.8318 259.337C50.0135 257.767 49.939 255.102 55.8052 254.57C56.6672 263.475 54.6823 309.221 54.3654 316.303C52.7766 316.061 51.2203 315.642 49.8318 314.952C49.8272 314.952 50.5587 283.137 50.4375 277.309Z" fill="#614F45"/>
<path d="M34.218 199.44C34.5534 200.689 33.6914 204.822 33.7753 205.516C33.8638 206.21 37.4237 211.783 41.906 211.871C46.3884 211.96 50.2092 207.002 50.0368 206.252C49.8597 205.507 49.2447 202.026 49.2447 200.204C49.2447 198.387 34.218 199.44 34.218 199.44Z" fill="#A55F3E"/>
<path d="M32.9037 196.854C32.5402 197.814 33.0155 200.265 33.6725 201.784C34.3294 203.303 37.8194 207.547 42.2412 208.162C46.663 208.782 49.673 203.605 50.1855 202.245C51.0056 200.046 50.7214 196.784 50.7214 196.784L32.9037 196.854Z" fill="#151724"/>
<path d="M30.0149 192.139C29.3999 192.33 29.7167 193.513 30.588 194.603C31.4593 195.694 30.9608 196.984 31.4919 197.446C32.0231 197.907 32.8665 197.189 32.8665 197.189C32.8665 197.189 35.6342 203.009 42.3158 202.995C47.8233 202.986 49.9573 199.808 50.7215 196.779C50.7215 196.779 51.5369 197.315 51.8724 196.253C52.2032 195.195 52.2311 193.443 52.6365 192.721C53.0419 191.999 53.0466 190.475 52.0168 190.606C50.9871 190.736 49.6358 183.472 49.6358 183.472C49.6358 183.472 47.1384 180.737 46.9194 180.769C46.6957 180.797 34.3435 182.638 34.3435 182.638L31.3056 189.483L30.0149 192.139Z" fill="#A55F3E"/>
<path d="M32.531 194.813C32.531 194.813 32.121 190.261 30.0149 192.139C30.0149 192.139 28.5006 182.056 31.1285 181.841C31.1285 181.841 30.9235 176.31 36.226 176.38C41.5284 176.455 45.8384 176.418 45.857 174.414C45.857 174.414 49.4262 176.604 48.2893 178.785C48.2893 178.785 51.891 179.777 52.0681 184.604C52.2451 189.431 52.0168 190.61 52.0168 190.61C52.0168 190.61 50.9731 190.997 50.5491 192.153C50.5491 192.153 50.2509 189.268 49.347 186.724C48.3871 184.017 47.3061 183.183 47.3061 183.183C46.9753 183.449 40.4661 186.254 34.3948 185C34.3948 185 33.6353 192.931 32.531 194.813Z" fill="#151724"/>
<path d="M32.7825 197.632L32.7778 195.833C32.7778 195.833 33.6119 198.401 36.1373 199.132C38.6627 199.859 39.6039 198.578 42.2598 198.191C44.911 197.804 45.6426 198.788 47.3106 198.447C49.2956 198.037 50.5629 195.237 50.5629 195.237C50.5629 195.237 50.7959 196.989 50.7679 198.103C50.7353 199.212 45.815 204.048 45.6845 204.202C45.554 204.356 38.9656 204.868 38.9656 204.868L33.2717 199.519L32.7825 197.632Z" fill="#151724"/>
<path d="M46.0247 200.418C46.2623 200.973 44.925 201.812 43.2104 201.812C41.4957 201.812 40.1025 201.257 40.1072 200.74C40.1118 200.297 41.5376 199.575 43.2523 199.575C44.967 199.58 45.8523 200.022 46.0247 200.418Z" fill="#A55F3E"/>
<path d="M20.1788 225.929L22.4666 254.771C22.4666 254.789 22.4805 254.799 22.4945 254.799H63.3299C63.3439 254.799 63.3579 254.789 63.3579 254.771L65.2496 225.281C65.2869 224.699 64.8489 224.205 64.2991 224.214L21.106 224.843C20.5562 224.857 20.1322 225.351 20.1788 225.929Z" fill="#DBDFE8"/>
<path d="M47.2549 240.368C47.2549 242.54 45.3538 244.306 43.0101 244.306C40.6664 244.306 38.7654 242.544 38.7654 240.368C38.7654 238.197 40.6664 236.436 43.0101 236.436C45.3585 236.436 47.2549 238.197 47.2549 240.368Z" fill="white"/>
<g opacity="0.5">
<path opacity="0.5" d="M22.3452 253.112L22.4804 254.775C22.4804 254.794 22.4943 254.803 22.5083 254.803H63.3437C63.3623 254.803 63.3717 254.794 63.3717 254.775L63.4788 253.112H22.3452Z" fill="#C3C6D5"/>
</g>
<g opacity="0.2">
<path opacity="0.2" d="M49.7755 224.428L28.6636 254.803H33.0248L52.04 224.428H49.7755Z" fill="white"/>
</g>
<g opacity="0.2">
<path opacity="0.2" d="M54.9291 224.359L40.3311 254.803H42.549L55.9542 224.345L54.9291 224.359Z" fill="white"/>
</g>
<path d="M63.498 233.659C61.1356 233.678 58.8152 233.654 58.079 234.064C57.3428 234.474 56.5741 234.763 56.383 235.439C56.2572 235.881 56.7045 237.372 57.3708 237.796C57.9393 238.16 58.5496 239.357 58.8339 239.469C59.1181 239.576 61.788 239.767 62.3984 240.9C63.0134 242.032 65.1055 241.673 66.0234 242.605C66.9367 243.537 68.4976 243.914 69.4388 243.546C70.3753 243.173 71.0509 239.292 70.6083 238.71C70.1656 238.132 68.6793 236.995 67.4678 235.784C66.8109 235.127 65.1381 233.645 63.498 233.659Z" fill="#A55F3E"/>
<path d="M21.2645 239.614C19.0094 241.207 19.1678 247.949 21.8982 247.595L21.2645 239.614Z" fill="#A55F3E"/>
</svg>
