<svg width="578" height="185" viewBox="0 0 578 185" fill="none" xmlns="http://www.w3.org/2000/svg">
<path d="M38.8716 86.1546C31.6995 86.1546 24.6405 82.3618 21.8667 75.5813V109.716H0.463563V41.9073C0.463563 34.8984 0.233667 30.7612 0 26.8524H20.2461L20.5928 36.3885C23.9471 29.2636 31.5827 25.6992 39.4482 25.6992C57.0335 25.6992 63.9719 40.0652 63.9719 55.5806C63.9757 71.6725 57.1541 86.1546 38.8716 86.1546ZM31.3528 39.7245C22.79 39.7245 21.2901 48.9199 21.2901 55.5843C21.2901 62.0204 22.7938 72.1331 31.2397 72.1331C40.0286 72.1331 41.1857 62.2487 41.1857 55.5843C41.1857 49.0322 39.9156 39.7245 31.3528 39.7245Z" fill="#0054A6"/>
<path d="M141.715 84.8887V50.0652C141.715 45.007 140.675 40.1847 134.543 40.1847C128.064 40.1847 126.56 46.7368 126.56 52.2518V84.8887H105.391V50.0652C105.391 45.1231 104.347 40.1847 98.3318 40.1847C92.0869 40.1847 90.2326 46.7368 90.2326 52.2518V84.8887H68.8295V39.3797C68.8295 35.2425 68.8295 30.9893 68.366 26.8521H88.6121L88.8457 36.3919C92.2 29.4954 99.0253 25.7026 107.818 25.7026C116.264 25.7026 122.856 29.6114 125.286 36.7364C128.294 29.4954 136.276 25.7026 143.682 25.7026C158.836 25.7026 163.118 35.1264 163.118 48.6874V84.8887H141.715Z" fill="#0054A6"/>
<path d="M188.908 61.099C189.025 70.1783 197.121 74.0871 205.337 74.0871C211.235 74.0871 218.294 73.1698 223.616 70.2944L224.309 82.9381C217.02 85.353 208.111 86.158 200.362 86.158C180.463 86.158 167.969 76.0415 167.969 55.584C167.969 36.6241 181.273 25.7026 198.971 25.7026C219.33 25.7026 227.316 38.4587 227.316 57.5384V61.1027H188.908V61.099ZM199.088 37.1932C191.219 37.1932 188.792 45.1231 188.792 51.0986H208.457C208.457 45.0108 206.724 37.1932 199.088 37.1932Z" fill="#0054A6"/>
<path d="M269.538 84.8888V51.3307C269.538 46.0441 268.957 40.1847 262.132 40.1847C255.193 40.1847 253.456 46.6207 253.456 52.3641V84.8888H232.053V39.3797C232.053 35.2425 232.053 30.9893 231.589 26.8521H251.835L252.065 36.3919C255.653 29.1509 263.172 25.7026 271.038 25.7026C284.458 25.7026 290.937 33.172 290.937 46.2763V84.8925H269.538V84.8888Z" fill="#0054A6"/>
<path d="M328.762 86.1546C308.632 86.1546 295.909 75.5813 295.909 55.5806C295.909 35.123 310.253 25.6992 328.762 25.6992C348.081 25.6992 361.614 34.8946 361.614 55.5806C361.618 75.6974 348.431 86.1546 328.762 86.1546ZM328.762 39.1479C320.663 39.1479 318.699 48.4556 318.699 55.5806C318.699 63.971 320.783 72.5898 328.762 72.5898C336.974 72.5898 338.828 64.0871 338.828 55.5806C338.828 48.4556 337.208 39.1479 328.762 39.1479Z" fill="#0054A6"/>
<path d="M385.445 86.1548C378.157 86.1548 370.868 85.1214 363.926 83.167L364.619 69.8344C370.057 72.7061 376.649 74.0877 382.781 74.0877C386.486 74.0877 393.658 73.0543 393.658 68.3405C393.658 58.1117 363.345 63.5144 363.345 43.9779C363.345 29.6119 379.89 25.5908 391.457 25.5908C397.822 25.5908 404.414 26.7402 410.663 28.2341L409.969 40.8741C404.648 38.9197 398.633 37.6579 392.847 37.6579C389.26 37.6579 383.131 38.3468 383.131 43.1729C383.131 51.4473 413.557 46.5051 413.557 66.5022C413.557 81.7854 398.169 86.1548 385.445 86.1548Z" fill="#0054A6"/>
<path d="M441.664 0H432.974V85.2822H441.664V0Z" fill="#009FE3"/>
<path d="M486.55 85.2821L486.192 75.8171C482.857 82.68 475.12 86.5813 467.736 86.5813C457.139 86.5813 448.327 81.2573 448.327 69.9015C448.327 54.7605 462.852 49.4365 481.071 49.4365H485.714V46.5985C485.714 37.609 482.141 32.0491 472.38 32.0491C466.308 32.0491 460.591 33.352 455.352 36.7816L454.636 29.095C459.637 26.8486 467.258 25.1899 472.734 25.1899C487.5 25.1899 494.284 32.5246 494.284 47.19V72.7395C494.284 77.1163 494.401 81.2572 495 85.2784H486.55V85.2821ZM485.717 55.7115H484.052C473.454 55.7115 457.259 56.539 457.259 69.5533C457.259 76.4124 462.856 79.6061 469.285 79.6061C481.907 79.6061 485.717 70.2609 485.717 59.2609V55.7115Z" fill="#009FE3"/>
<path d="M532.507 86.5851C524.291 86.5851 517.741 82.9197 513.935 75.4653L513.697 85.2822H505.719V0H514.41V36.3136C517.387 29.4545 525.245 25.1975 532.628 25.1975C550.726 25.1975 556.677 39.9828 556.677 55.5956C556.677 70.8526 550.13 86.5851 532.507 86.5851ZM530.842 32.5284C518.457 32.5284 514.055 45.3031 514.055 55.5956C514.055 65.888 518.224 79.2505 530.842 79.2505C544.059 79.2505 547.274 66.3597 547.274 55.5956C547.274 44.7116 544.296 32.5284 530.842 32.5284Z" fill="#009FE3"/>
<path d="M577.037 74.7573H566.797V85.2856H577.037V74.7573Z" fill="#009FE3"/>
<path d="M577.036 117.392H0V184.208H577.036V117.392Z" fill="#ED1C24"/>
<path d="M39.4513 162.694V152.851H30.146V162.694H24.9451V139.417H30.146V148.699H39.4513V139.417H44.6522V162.694H39.4513Z" fill="white"/>
<path d="M51.1505 162.694V139.417H66.4293V142.978H56.2422V149.084H65.9733V152.607H56.2422V159.133H66.7459V162.694H51.1505Z" fill="white"/>
<path d="M88.8002 162.69L86.7273 156.864H76.7513L74.6445 162.69H69.5189L78.4397 139.417H85.2537L94.2085 162.69H88.8002ZM81.7789 142.697L77.8103 153.341H85.6419L81.7789 142.697Z" fill="white"/>
<path d="M98.1095 162.694V139.417H103.31V158.575H113.388V162.694H98.1095Z" fill="white"/>
<path d="M126.526 143.535V162.694H121.291V143.535H113.95V139.417H133.868V143.535H126.526Z" fill="white"/>
<path d="M152.693 162.694V152.851H143.384V162.694H138.187V139.417H143.384V148.699H152.693V139.417H157.894V162.694H152.693Z" fill="white"/>
<path d="M183.883 156.726C181.177 156.726 179.003 154.562 179.003 151.877C179.003 149.189 181.177 147.029 183.883 147.029C186.589 147.029 188.802 149.189 188.802 151.877C188.798 154.562 186.586 156.726 183.883 156.726Z" fill="white"/>
<path d="M220.272 143.535V162.694H215.037V143.535H207.695V139.417H227.614V143.535H220.272Z" fill="white"/>
<path d="M231.933 162.694V139.417H247.212V142.978H237.025V149.084H246.756V152.607H237.025V159.133H247.528V162.694H231.933Z" fill="white"/>
<path d="M264.598 163.076C257.045 163.076 251.776 158.786 251.776 151.073C251.776 143.779 257.429 139.069 264.598 139.069C266.459 139.069 268.706 139.384 270.462 139.908L270.255 143.779C268.815 143.184 266.987 142.836 265.408 142.836C260.418 142.836 257.222 146.22 257.222 151.073C257.222 156.06 260.207 159.306 265.302 159.306C267.025 159.306 268.743 159.025 270.322 158.329L270.534 162.099C268.777 162.799 266.531 163.076 264.598 163.076Z" fill="white"/>
<path d="M287.919 162.694V152.851H278.614V162.694H273.413V139.417H278.614V148.699H287.919V139.417H293.12V162.694H287.919Z" fill="white"/>
<path d="M319.109 156.726C316.403 156.726 314.228 154.562 314.228 151.877C314.228 149.189 316.407 147.029 319.109 147.029C321.815 147.029 324.027 149.189 324.027 151.877C324.027 154.562 321.815 156.726 319.109 156.726Z" fill="white"/>
<path d="M345.137 162.694V139.417H360.416V142.978H350.229V149.084H359.96V152.607H350.229V159.133H360.732V162.694H345.137Z" fill="white"/>
<path d="M381.242 162.694L375.344 153.27L369.34 162.694H363.645L372.215 150.582L364.561 139.417H370.497L375.867 147.931L381.174 139.417H386.688L378.89 150.582L387.392 162.694H381.242Z" fill="white"/>
<path d="M401.126 154.109H396.49V162.694H391.395V139.421H401.265C405.762 139.421 409.169 142.005 409.169 146.681C409.169 151.631 405.656 154.109 401.126 154.109ZM399.298 142.873H396.453V150.62H398.28C401.126 150.62 403.937 150.238 403.937 146.711C403.934 143.955 401.793 142.873 399.298 142.873Z" fill="white"/>
<path d="M413.979 162.694V139.417H429.258V142.978H419.074V149.084H428.802V152.607H419.074V159.133H429.574V162.694H413.979Z" fill="white"/>
<path d="M446.89 162.694L444.467 156.03C443.66 153.761 443.133 153.065 440.57 153.065H438.674V162.694H433.582V139.421H443.136C447.139 139.421 451.107 140.956 451.107 145.599C451.107 148.808 448.718 150.728 445.699 151.253C447.806 151.672 448.684 152.754 449.423 154.705L452.442 162.694H446.89ZM441.131 142.873H438.636V149.609H440.992C443.381 149.609 445.873 148.875 445.873 146.119C445.873 143.394 443.656 142.873 441.131 142.873Z" fill="white"/>
<path d="M462.276 139.417H457.079V162.69H462.276V139.417Z" fill="white"/>
<path d="M468.776 162.694V139.417H484.055V142.978H473.868V149.084H483.595V152.607H473.868V159.133H484.371V162.694H468.776Z" fill="white"/>
<path d="M502.319 162.694L493.677 143.674V162.694H489.075V139.417H496.662L505.338 158.471V139.417H509.94V162.694H502.319Z" fill="white"/>
<path d="M528.101 163.076C520.549 163.076 515.28 158.786 515.28 151.073C515.28 143.779 520.933 139.069 528.101 139.069C529.963 139.069 532.209 139.384 533.966 139.908L533.755 143.783C532.315 143.188 530.487 142.84 528.908 142.84C523.918 142.84 520.722 146.224 520.722 151.077C520.722 156.064 523.707 159.31 528.802 159.31C530.525 159.31 532.243 159.029 533.822 158.333L534.033 162.103C532.277 162.799 530.031 163.076 528.101 163.076Z" fill="white"/>
<path d="M537.617 162.694V139.417H552.896V142.978H542.713V149.085H552.44V152.608H542.713V159.134H553.213V162.694H537.617Z" fill="white"/>
</svg>
